<svg width="20" height="20" viewBox="0 0 20 20" fill="none" xmlns="http://www.w3.org/2000/svg">
<path d="M12.0625 15.5781L9.625 13.1875L10.7031 12.1094L12.0625 13.4688L14.5469 10.9844L15.5781 12.0625L12.0625 15.5781ZM10 0.015625C4.51562 0.015625 0.015625 4.51562 0.015625 10C0.015625 15.4844 4.51562 19.9844 10 19.9844C15.4844 19.9844 19.9844 15.4844 19.9844 10C19.9844 4.51562 15.4844 0.015625 10 0.015625ZM5.35938 4.28125L6.76562 5.6875L8.17188 4.28125L9.20312 5.35938L7.79688 6.76562L9.20312 8.17188L8.17188 9.20312L6.76562 7.79688L5.35938 9.20312L4.28125 8.17188L5.6875 6.76562L4.28125 5.35938L5.35938 4.28125ZM10 18.0156C7.79688 18.0156 5.78125 17.0781 4.28125 15.7188L15.7188 4.28125C17.0781 5.78125 18.0156 7.79688 18.0156 10C18.0156 14.4062 14.4062 18.0156 10 18.0156Z" fill="white"/>
</svg>
