<svg width="48" height="48" viewBox="0 0 48 48" fill="none" xmlns="http://www.w3.org/2000/svg">
<path d="M33.75 31.0889L25.7349 19.7915C24.6018 18.1465 24.0064 16.2326 24.0064 14.2484C24 8.87174 28.3789 4.5 33.75 4.5C39.1211 4.5 43.5 8.87174 43.5 14.2484C43.5 16.239 42.9046 18.1529 41.7715 19.7851L33.75 31.0889ZM33.75 6.1258C29.2751 6.1258 25.6261 9.76785 25.6261 14.2484C25.6261 15.9062 26.1254 17.5 27.0601 18.8634L33.75 28.2853L40.4463 18.857C41.381 17.5064 41.8803 15.9062 41.8803 14.2548C41.8803 9.76785 38.2313 6.1258 33.75 6.1258Z" fill="#DC3CF7"/>
<path d="M33.75 19.9387C30.6131 19.9387 28.0588 17.3848 28.0588 14.2484C28.0588 11.112 30.6131 8.5581 33.75 8.5581C36.8869 8.5581 39.4412 11.112 39.4412 14.2484C39.4412 17.3848 36.8869 19.9387 33.75 19.9387ZM33.75 10.1903C31.5094 10.1903 29.6848 12.0145 29.6848 14.2548C29.6848 16.4951 31.5094 18.3193 33.75 18.3193C35.9906 18.3193 37.8152 16.4951 37.8152 14.2548C37.8152 12.0145 35.9906 10.1903 33.75 10.1903Z" fill="#DC3CF7"/>
<path d="M21.9706 43.5H4.5V41.8742H21.9706C23.0909 41.8742 24 40.9653 24 39.8451C24 38.725 23.0909 37.8161 21.9706 37.8161H19.1282C17.1116 37.8161 15.4728 36.1775 15.4728 34.1613C15.4728 32.145 17.1116 30.5064 19.1282 30.5064H32.1303V32.1322H19.1282C18.0079 32.1322 17.0988 33.0411 17.0988 34.1613C17.0988 35.2814 18.0079 36.1839 19.1282 36.1839H21.9706C23.9872 36.1839 25.6261 37.8225 25.6261 39.8387C25.6261 41.855 23.9872 43.5 21.9706 43.5Z" fill="#DC3CF7"/>
</svg>
