<svg width="48" height="48" viewBox="0 0 48 48" fill="none" xmlns="http://www.w3.org/2000/svg">
<path d="M22.8323 6.02799C20.0744 5.93876 17.5992 7.92253 16.6408 10.5447C16.434 11.1144 16.2823 11.7047 16.2823 12.3157C16.2823 12.4255 16.2823 12.5353 16.2547 12.6451C16.1582 13.0501 15.8548 13.2835 15.4549 13.2561C15.0619 13.2286 14.793 12.9609 14.7655 12.5284C14.731 11.9519 14.8206 11.389 14.9792 10.8398C15.8893 7.7166 17.8198 5.5269 21.0466 4.73065C25.2248 3.70101 29.2514 6.21333 30.2718 10.3799C30.4097 10.9359 30.4993 11.4919 30.4924 12.0685C30.4855 12.5696 30.2235 12.8717 29.7892 12.8991C29.3548 12.9266 29.0376 12.6589 28.9963 12.1646C28.9411 11.5606 28.8997 10.9565 28.7136 10.3731C27.831 7.6205 25.411 5.96621 22.8323 6.02799Z" fill="#DC3CF7"/>
<path d="M38.9799 24.9528C38.9247 22.9003 36.9184 21.9325 35.5325 22.2345C35.1533 22.3169 34.8086 22.4816 34.45 22.6121C33.4296 20.6489 31.4784 20.2096 29.7271 21.349C28.6998 20.0105 27.3829 19.681 25.7971 20.3057C25.7144 20.0723 25.7419 19.8732 25.7419 19.681C25.7419 17.3266 25.7626 14.979 25.735 12.6245C25.7075 10.4417 23.3977 9.062 21.4534 10.0505C20.3709 10.5996 19.8262 11.5125 19.8262 12.7275C19.8262 16.6607 19.8262 20.594 19.8262 24.5272C19.8262 24.8429 19.7917 25.145 19.709 25.4539C19.2608 27.1219 18.8127 28.7899 18.3576 30.451C18.3025 30.6432 18.3163 30.856 18.1439 31.0139C17.937 30.959 17.8198 30.7874 17.6682 30.657C16.4823 29.6067 15.2963 28.5496 14.1104 27.5063C13.3796 26.861 12.5246 26.5727 11.5525 26.7512C10.3597 26.9709 9.54611 27.6573 9.16689 28.7968C8.78079 29.9705 9.07726 31.0139 9.92532 31.8857C10.5045 32.4829 11.1112 33.0457 11.7042 33.6223C13.2762 35.1462 14.8137 36.7181 16.4409 38.1871C18.2956 39.8688 20.2399 41.4544 22.1291 43.1019C22.46 43.3902 22.7979 43.5 23.2322 43.5C25.7075 43.4863 28.1827 43.4931 30.651 43.4931C31.4991 43.4931 32.3471 43.4863 33.1952 43.4931C33.5813 43.5 33.864 43.3559 34.0639 43.0195C34.319 42.5939 34.6017 42.1821 34.8568 41.7565C36.153 39.6491 37.2424 37.4457 37.9112 35.057C38.842 31.7415 39.0764 28.3574 38.9799 24.9528ZM36.1393 35.6953C35.4153 37.837 34.3328 39.7933 33.1331 41.6947C33.0021 41.9075 32.8504 41.9899 32.5953 41.9899C29.5685 41.983 26.5417 41.983 23.508 41.9899C23.1909 41.9899 22.9978 41.832 22.7841 41.6535C19.0333 38.5577 15.4687 35.256 12.0213 31.817C11.6973 31.4944 11.3525 31.1855 11.0285 30.856C10.3873 30.1971 10.3528 29.2978 10.9389 28.6801C11.5249 28.0623 12.435 28.028 13.1245 28.6389C14.6482 29.9774 16.1582 31.3228 17.675 32.6682C17.7716 32.7506 17.8681 32.8398 17.9646 32.9222C18.5783 33.437 19.1574 33.2654 19.3712 32.4829C20.0055 30.1627 20.626 27.8358 21.2465 25.5156C21.3086 25.2822 21.3017 25.042 21.3017 24.8018C21.3017 22.8317 21.3017 20.8685 21.3017 18.8985C21.3017 16.9284 21.3017 14.9653 21.3017 12.9952C21.3017 12.7344 21.3086 12.4804 21.3913 12.2333C21.5844 11.6155 22.1635 11.2036 22.8185 11.2242C23.446 11.2448 23.9907 11.6636 24.163 12.2676C24.2389 12.5353 24.2389 12.8099 24.2389 13.0845C24.2389 16.9422 24.2389 20.8067 24.2389 24.6645C24.2389 24.8498 24.232 25.0351 24.2527 25.2136C24.294 25.598 24.5767 25.8588 24.9421 25.8794C25.3214 25.9 25.6592 25.6255 25.7144 25.2342C25.7419 25.0351 25.7281 24.8292 25.7281 24.6301C25.7281 24.0398 25.7075 23.4495 25.735 22.866C25.7695 22.1933 26.2246 21.6716 26.8589 21.5206C27.4312 21.3833 28.0655 21.6373 28.4033 22.1384C28.5964 22.4267 28.6446 22.7493 28.6446 23.0857C28.6515 23.6897 28.6446 24.3007 28.6515 24.9047C28.6584 25.5431 28.9066 25.8657 29.3824 25.8794C29.865 25.8932 30.1477 25.5294 30.1546 24.8841C30.1615 24.4997 30.1477 24.1153 30.1546 23.7241C30.1753 22.8386 30.7544 22.262 31.5887 22.2277C32.2989 22.1933 33.0849 22.8111 33.0504 23.6966C33.0366 24.081 33.0504 24.4654 33.0504 24.8567C33.0504 25.0214 33.0504 25.1861 33.1056 25.344C33.209 25.6666 33.4779 25.8726 33.8019 25.8794C34.1398 25.8863 34.4569 25.6598 34.5397 25.3234C34.581 25.1656 34.5672 24.9939 34.6086 24.8361C34.7672 24.1153 35.4291 23.628 36.153 23.6897C36.8632 23.7515 37.4562 24.3075 37.463 25.0214C37.5182 28.6457 37.3114 32.2289 36.1393 35.6953Z" fill="#DC3CF7"/>
</svg>
