<svg width="19" height="16" viewBox="0 0 19 16" fill="none" xmlns="http://www.w3.org/2000/svg">
<path d="M1.98438 6.5C1.1875 6.5 0.484375 7.15625 0.484375 8C0.484375 8.84375 1.1875 9.5 1.98438 9.5C2.82812 9.5 3.48438 8.84375 3.48438 8C3.48438 7.15625 2.82812 6.5 1.98438 6.5ZM1.98438 0.5C1.1875 0.5 0.484375 1.15625 0.484375 2C0.484375 2.84375 1.1875 3.5 1.98438 3.5C2.82812 3.5 3.48438 2.84375 3.48438 2C3.48438 1.15625 2.82812 0.5 1.98438 0.5ZM1.98438 12.5C1.1875 12.5 0.484375 13.2031 0.484375 14C0.484375 14.7969 1.1875 15.5 1.98438 15.5C2.82812 15.5 3.48438 14.7969 3.48438 14C3.48438 13.2031 2.82812 12.5 1.98438 12.5ZM4.98438 14.9844H19V13.0156H4.98438V14.9844ZM4.98438 8.98438H19V7.01562H4.98438V8.98438ZM4.98438 1.01562V2.98438H19V1.01562H4.98438Z" fill="white"/>
</svg>
