<svg width="38" height="38" viewBox="0 0 38 38" fill="none" xmlns="http://www.w3.org/2000/svg">
<path d="M19 5C21.5156 5 23.7031 7.07812 23.7031 9.70312C23.7031 12.2188 21.5156 14.2969 19 14.2969C16.4844 14.2969 14.2969 12.2188 14.2969 9.70312C14.2969 7.07812 16.4844 5 19 5ZM19 28.2969C25.3438 28.2969 32.5625 31.3594 33 33H5C5.54688 31.3594 12.7656 28.2969 19 28.2969ZM19 0.296875C13.8594 0.296875 9.70312 4.5625 9.70312 9.70312C9.70312 14.8438 13.8594 19 19 19C24.1406 19 28.2969 14.8438 28.2969 9.70312C28.2969 4.5625 24.1406 0.296875 19 0.296875ZM19 23.7031C12.7656 23.7031 0.296875 26.7656 0.296875 33V37.7031H37.7031V33C37.7031 26.7656 25.2344 23.7031 19 23.7031Z" fill="#DC3CF7"/>
</svg>
