<svg width="56" height="56" viewBox="0 0 56 56" fill="none" xmlns="http://www.w3.org/2000/svg">
<path d="M19.833 35H23.333V21H16.333V24.5H19.833V35Z" fill="#DC3CF7"/>
<path d="M44.3333 7H11.6667C9.1 7 7 9.1 7 11.6667V44.3333C7 46.9 9.1 49 11.6667 49H44.3333C46.9 49 49 46.9 49 44.3333V11.6667C49 9.1 46.9 7 44.3333 7ZM44.3333 44.3333H11.6667V11.6667H44.3333V44.3333Z" fill="#DC3CF7"/>
<path d="M29.1663 35H34.9997C36.283 35 37.333 33.95 37.333 32.6667V23.3333C37.333 22.05 36.283 21 34.9997 21H29.1663C27.883 21 26.833 22.05 26.833 23.3333V32.6667C26.833 33.95 27.883 35 29.1663 35ZM30.333 23.3333H33.833V26.8333H30.333V23.3333ZM30.333 29.1667H33.833V32.6667H30.333V29.1667Z" fill="#DC3CF7"/>
</svg>
