<svg width="48" height="48" viewBox="0 0 48 48" fill="none" xmlns="http://www.w3.org/2000/svg">
<path d="M24 0.703125C11.0938 0.703125 0.703125 11.0938 0.703125 24C0.703125 36.9062 11.0938 47.2969 24 47.2969C36.9062 47.2969 47.2969 36.9062 47.2969 24C47.2969 11.0938 36.9062 0.703125 24 0.703125ZM24 42.7031C13.7188 42.7031 5.29688 34.2812 5.29688 24C5.29688 13.7188 13.7188 5.29688 24 5.29688C34.2812 5.29688 42.7031 13.7188 42.7031 24C42.7031 34.2812 34.2812 42.7031 24 42.7031ZM24.7656 22.0312C20.6094 20.9375 19.2969 19.8438 19.2969 18.0938C19.2969 16.125 21.1562 14.8125 24.1094 14.8125C27.3906 14.8125 28.5938 16.3438 28.7031 18.6406H32.6406C32.5312 15.4688 30.6719 12.625 26.8438 11.6406V7.70312H21.4844V11.6406C17.875 12.4062 15.1406 14.5938 15.1406 18.2031C15.1406 22.3594 18.5312 24.4375 23.6719 25.6406C28.1562 26.7344 29.1406 28.375 29.1406 30.0156C29.1406 31.2188 28.1562 33.2969 24.2188 33.2969C20.5 33.2969 18.9688 31.5469 18.75 29.4688H14.8125C15.0312 33.4062 17.9844 35.5938 21.4844 36.3594V40.2969H26.8438V36.4688C30.4531 35.8125 33.1875 33.7344 33.2969 30.0156C33.1875 24.875 28.8125 23.0156 24.7656 22.0312Z" fill="#DC3CF7"/>
</svg>
