<svg width="46" height="34" viewBox="0 0 46 34" fill="none" xmlns="http://www.w3.org/2000/svg">
<path d="M45.3125 26.5156L42.7969 8.6875C42.1406 4.09375 38.2031 0.703125 33.6094 0.703125H12.3906C7.79688 0.703125 3.85938 4.09375 3.20312 8.6875L0.6875 26.5156C0.140625 30.125 2.875 33.2969 6.48438 33.2969C8.125 33.2969 9.65625 32.75 10.75 31.5469L16 26.2969H30L35.25 31.5469C36.3438 32.75 37.875 33.2969 39.4062 33.2969C43.125 33.2969 45.8594 30.125 45.3125 26.5156ZM40.5 28.2656C40.2812 28.4844 39.9531 28.7031 39.5156 28.7031C39.0781 28.7031 38.75 28.4844 38.5312 28.2656L31.9688 21.7031H14.0312L7.46875 28.2656C7.25 28.4844 6.92188 28.7031 6.48438 28.7031C6.04688 28.7031 5.71875 28.4844 5.5 28.2656C5.39062 28.0469 5.17188 27.7188 5.28125 27.1719L7.79688 9.34375C8.125 7.04688 10.0938 5.29688 12.3906 5.29688H33.6094C35.9062 5.29688 37.875 7.04688 38.2031 9.34375L40.7188 27.1719C40.8281 27.7188 40.6094 28.0469 40.5 28.2656ZM16 7.70312H13.7031V12.2969H9V14.7031H13.7031V19.2969H16V14.7031H20.7031V12.2969H16V7.70312ZM32.2969 17C32.2969 15.6875 33.3906 14.7031 34.7031 14.7031C35.9062 14.7031 37 15.6875 37 17C37 18.3125 35.9062 19.2969 34.7031 19.2969C33.3906 19.2969 32.2969 18.3125 32.2969 17ZM27.7031 10C27.7031 8.6875 28.6875 7.70312 30 7.70312C31.3125 7.70312 32.2969 8.6875 32.2969 10C32.2969 11.3125 31.3125 12.2969 30 12.2969C28.6875 12.2969 27.7031 11.3125 27.7031 10Z" fill="#DC3CF7"/>
</svg>
