<svg width="42" height="42" viewBox="0 0 42 42" fill="none" xmlns="http://www.w3.org/2000/svg">
<path d="M37.2969 0H4.70312C2.07812 0 0 2.07812 0 4.70312V37.2969C0 39.9219 2.07812 42 4.70312 42H37.2969C39.9219 42 42 39.9219 42 37.2969V4.70312C42 2.07812 39.9219 0 37.2969 0ZM37.2969 37.2969H4.70312V4.70312H37.2969V37.2969ZM7 31.5C7 29.5312 8.53125 28 10.5 28C12.4688 28 14 29.5312 14 31.5C14 33.4688 12.4688 35 10.5 35C8.53125 35 7 33.4688 7 31.5ZM7 10.5C7 8.53125 8.53125 7 10.5 7C12.4688 7 14 8.53125 14 10.5C14 12.4688 12.4688 14 10.5 14C8.53125 14 7 12.4688 7 10.5ZM17.5 21C17.5 19.0312 19.0312 17.5 21 17.5C22.9688 17.5 24.5 19.0312 24.5 21C24.5 22.9688 22.9688 24.5 21 24.5C19.0312 24.5 17.5 22.9688 17.5 21ZM28 31.5C28 29.5312 29.5312 28 31.5 28C33.4688 28 35 29.5312 35 31.5C35 33.4688 33.4688 35 31.5 35C29.5312 35 28 33.4688 28 31.5ZM28 10.5C28 8.53125 29.5312 7 31.5 7C33.4688 7 35 8.53125 35 10.5C35 12.4688 33.4688 14 31.5 14C29.5312 14 28 12.4688 28 10.5Z" fill="#DC3CF7"/>
</svg>
