<svg width="48" height="48" viewBox="0 0 48 48" fill="none" xmlns="http://www.w3.org/2000/svg">
<path d="M24 0.703125C11.0938 0.703125 0.703125 11.0938 0.703125 24C0.703125 36.9062 11.0938 47.2969 24 47.2969C36.9062 47.2969 47.2969 36.9062 47.2969 24C47.2969 11.0938 36.9062 0.703125 24 0.703125ZM24 42.7031C13.7188 42.7031 5.29688 34.2812 5.29688 24C5.29688 13.7188 13.7188 5.29688 24 5.29688C34.2812 5.29688 42.7031 13.7188 42.7031 24C42.7031 34.2812 34.2812 42.7031 24 42.7031ZM31 24C31 27.8281 27.8281 31 24 31C20.1719 31 17 27.8281 17 24C17 20.1719 20.1719 17 24 17C27.8281 17 31 20.1719 31 24Z" fill="#DC3CF7"/>
</svg>
