<svg width="38" height="50" viewBox="0 0 38 50" fill="none" xmlns="http://www.w3.org/2000/svg">
<path d="M33 16.7031H30.7031V12C30.7031 5.54688 25.4531 0.296875 19 0.296875C12.5469 0.296875 7.29688 5.54688 7.29688 12H12C12 8.17188 15.1719 5 19 5C22.8281 5 26 8.17188 26 12V16.7031H5C2.48438 16.7031 0.296875 18.7812 0.296875 21.2969V44.7031C0.296875 47.2188 2.48438 49.2969 5 49.2969H33C35.5156 49.2969 37.7031 47.2188 37.7031 44.7031V21.2969C37.7031 18.7812 35.5156 16.7031 33 16.7031ZM33 44.7031H5V21.2969H33V44.7031ZM19 37.7031C21.5156 37.7031 23.7031 35.5156 23.7031 33C23.7031 30.4844 21.5156 28.2969 19 28.2969C16.4844 28.2969 14.2969 30.4844 14.2969 33C14.2969 35.5156 16.4844 37.7031 19 37.7031Z" fill="#DC3CF7"/>
</svg>
