<svg width="49" height="49" viewBox="0 0 49 49" fill="none" xmlns="http://www.w3.org/2000/svg">
<path d="M23.3438 38C15.9062 37.6719 10 31.5469 10 24C10 16.2344 16.2344 10 24 10C31.5469 10 37.6719 15.9062 38 23.3438L33.0781 21.8125C32.0938 17.7656 28.375 14.7031 24 14.7031C18.8594 14.7031 14.7031 18.8594 14.7031 24C14.7031 28.375 17.7656 32.0938 21.8125 33.0781L23.3438 38ZM47.2969 24C47.2969 24.6562 47.2969 25.4219 47.1875 26.0781L42.5938 24.7656C42.7031 24.4375 42.7031 24.2188 42.7031 24C42.7031 13.7188 34.2812 5.29688 24 5.29688C13.7188 5.29688 5.29688 13.7188 5.29688 24C5.29688 34.2812 13.7188 42.7031 24 42.7031C24.2188 42.7031 24.4375 42.7031 24.7656 42.5938L26.0781 47.1875C25.4219 47.2969 24.6562 47.2969 24 47.2969C11.0938 47.2969 0.703125 36.9062 0.703125 24C0.703125 11.0938 11.0938 0.703125 24 0.703125C36.9062 0.703125 47.2969 11.0938 47.2969 24ZM38.5469 33.9531L47.2969 31L24 24L31 47.2969L33.9531 38.5469L43.9062 48.5L48.5 43.9062L38.5469 33.9531Z" fill="#DC3CF7"/>
</svg>
