<svg width="48" height="48" viewBox="0 0 48 48" fill="none" xmlns="http://www.w3.org/2000/svg">
<path d="M31.6684 18.0028C31.5476 17.582 31.4267 17.1554 31.3059 16.7346L31.207 16.3877C31.0642 15.8929 30.8829 15.3754 30.5204 14.9261C30.3171 14.6758 30.048 14.4825 29.7184 14.346C29.4327 14.2265 29.0921 14.2152 28.6802 14.3118C28.444 14.363 28.2407 14.4256 28.0594 14.4938C28.043 14.4313 28.0265 14.363 28.01 14.3005C27.8617 13.7488 27.631 13.3393 27.3014 13.055C26.9114 12.7137 26.4719 12.5204 25.9556 12.4521C25.5491 12.4009 25.1371 12.5147 24.7526 12.6284C24.5878 12.6796 24.4449 12.7308 24.3186 12.7877C24.1923 12.6171 24.0385 12.4578 23.8517 12.31C23.4067 11.9517 22.8245 11.7924 22.2202 11.8664C21.962 11.9005 21.7094 11.963 21.5006 12.0256C21.2369 12.0995 20.9568 12.1905 20.7261 12.3498C20.1987 12.7081 19.8252 13.2483 19.7044 13.8171C19.6439 14.1185 19.6329 14.4256 19.6824 14.7498C19.5945 14.7668 19.5066 14.7839 19.4187 14.8066C18.8969 14.9374 18.4739 15.091 18.1004 15.3924C17.7158 15.7109 17.4192 16.2 17.3203 16.7005C17.2544 17.019 17.2489 17.309 17.2929 17.6275C17.3203 17.7981 17.3643 17.963 17.4027 18.1223C17.4137 18.1621 17.4247 18.2019 17.4357 18.2417C17.9465 20.2095 18.4409 22.1204 18.8529 23.7355C18.9683 24.1848 19.0672 24.5545 19.155 24.89C18.5453 24.3782 17.8257 24.0256 17.1116 23.8948C16.1393 23.7185 15.2384 23.8038 14.5133 24.1393C14.0464 24.3611 13.7058 24.691 13.5301 25.1062C13.3213 25.5953 13.3433 26.1355 13.5905 26.6645C13.8871 27.2957 14.4254 27.7052 14.9473 28.0976C15.0736 28.1943 15.211 28.2967 15.3318 28.3934C15.7822 28.7801 16.1778 29.2351 16.5458 29.6616C16.9028 30.0768 17.2599 30.5374 17.6389 31.0664C17.8806 31.4133 18.1223 31.7659 18.3585 32.1128C19.0726 33.1649 19.8087 34.2512 20.6931 35.2009C22.0444 36.6569 23.621 37.6464 25.2579 38.073C26.1313 38.3005 26.9993 38.3687 27.8397 38.272C28.3341 38.2152 28.7406 38.1355 29.1086 38.0275C29.1361 38.0218 29.1581 38.0104 29.18 38.0047C29.603 37.8739 30.0315 37.6976 30.4544 37.4815C31.9321 36.7308 33.1736 35.4626 33.8602 34.0066C34.3216 33.0341 34.5688 32.0445 34.5963 31.072C34.6073 30.6682 34.5798 30.2645 34.5468 29.872L34.5359 29.7242C34.5084 29.3261 34.459 28.7972 34.3546 28.2796C34.3216 28.109 34.2832 27.9384 34.2447 27.7791L34.2118 27.637C33.9536 26.5052 33.6679 25.3735 33.4153 24.4009C33.3548 24.1564 33.2889 23.9118 33.2285 23.6673C33.0198 22.8483 32.8 21.9953 32.5693 21.1649C32.388 20.5052 32.1958 19.8398 32.0035 19.1915C31.8991 18.8104 31.7838 18.4009 31.6684 18.0028ZM27.7848 36.6967C27.2739 36.7479 26.7521 36.7422 26.2467 36.6739C25.6809 36.5773 25.0986 36.4009 24.5273 36.1507C23.9176 35.8664 23.3298 35.491 22.775 35.0417C21.962 34.3536 21.193 33.4777 20.3416 32.2891C20.0889 31.9365 19.8417 31.5668 19.6055 31.2142C19.2924 30.7536 18.9683 30.2758 18.6387 29.8152C17.9905 28.9223 17.3533 28.1772 16.6886 27.5289C16.4249 27.273 16.1283 27.0455 15.8427 26.8294C15.7108 26.727 15.568 26.619 15.4417 26.5166C15.2879 26.3858 15.1615 26.255 15.0572 26.1185C15.0132 26.0502 14.9748 25.9763 14.9418 25.9081C14.9363 25.8853 14.9308 25.8626 14.9253 25.8398C14.9253 25.8227 14.9253 25.8114 14.9253 25.7943C14.9308 25.7829 14.9308 25.7716 14.9363 25.7602C14.9418 25.7545 14.9418 25.7488 14.9473 25.7431C14.9693 25.7204 14.9857 25.7033 15.0077 25.6806C15.0846 25.6294 15.1725 25.5839 15.2714 25.5384C15.4087 25.4872 15.5515 25.4531 15.6999 25.4246C16.0459 25.3905 16.381 25.3905 16.6996 25.4303C16.9633 25.4815 17.2269 25.5611 17.4851 25.6692C17.7378 25.7886 17.9685 25.9365 18.1828 26.1014C18.4794 26.3687 18.7376 26.6872 18.9738 26.9943C19.0177 27.0512 19.0617 27.1137 19.1056 27.1706C19.3143 27.4493 19.5286 27.7393 19.8307 27.9213L19.8417 27.9327C19.9241 27.9953 20.012 28.0237 20.0724 28.0408C20.1383 28.0635 20.2042 28.0692 20.2701 28.0692C20.2756 28.0692 20.2811 28.0692 20.2866 28.0692C20.3086 28.0692 20.3361 28.0635 20.358 28.0578L20.3965 28.0521C20.4185 28.0521 20.4459 28.0464 20.4679 28.0408H20.4734C20.4789 28.0408 20.4844 28.0408 20.4899 28.0351C20.6602 27.9725 20.6821 27.9611 20.825 27.8417L20.8414 27.8246C20.8854 27.7791 20.9238 27.7336 20.9568 27.6768C20.9568 27.6768 20.9568 27.6768 20.9568 27.6711V27.6654C20.9952 27.6085 21.0227 27.5403 21.0392 27.4777C21.0447 27.4664 21.0447 27.455 21.0502 27.4493C21.16 27.1422 21.1436 26.7839 21.1106 26.4711C21.0721 26.1185 21.0117 25.7829 20.9128 25.4303C20.8524 25.2085 20.792 24.9924 20.7316 24.7706C20.6162 24.3441 20.4954 23.9062 20.38 23.4682C20.2152 22.837 20.0559 22.2114 19.8911 21.5801C19.7044 20.8578 19.5176 20.1355 19.3308 19.4133C19.2319 19.0322 19.1331 18.6455 19.0342 18.2645C19.0122 18.1735 18.9848 18.0768 18.9573 17.9858C18.8969 17.764 18.8309 17.5422 18.798 17.3147C18.798 17.2521 18.798 17.1896 18.8035 17.127C18.82 17.0531 18.8364 16.9791 18.8639 16.9109C18.8969 16.8483 18.9298 16.7858 18.9738 16.7232C19.0177 16.672 19.0672 16.6265 19.1166 16.581C19.166 16.5469 19.221 16.5185 19.2869 16.49C19.5286 16.3991 19.7813 16.3308 20.023 16.291C20.0394 16.291 20.0559 16.291 20.0724 16.2853L21.8742 22.9052C21.8906 22.9678 21.9071 23.0246 21.9236 23.0872L21.9291 23.0986C21.984 23.3033 22.1104 23.4739 22.2697 23.5763C22.3575 23.6389 22.4564 23.673 22.5608 23.6787C22.6597 23.7014 22.764 23.6957 22.8629 23.6673C23.0717 23.5991 23.2365 23.4739 23.3243 23.309L23.4012 23.127L23.4067 23.1156C23.4452 22.9791 23.4452 22.837 23.4122 22.7005L21.4732 15.5915C21.4567 15.5289 21.4402 15.4664 21.4237 15.4095L21.4182 15.3981C21.3962 15.3128 21.3743 15.2275 21.3468 15.1422C21.2864 14.9147 21.2205 14.6758 21.182 14.4427C21.1765 14.3687 21.1765 14.2948 21.182 14.2265C21.193 14.164 21.215 14.1071 21.2315 14.0445C21.2644 13.9763 21.3029 13.9137 21.3413 13.8569C21.3853 13.8057 21.4347 13.7545 21.4896 13.709C21.5391 13.6749 21.594 13.6464 21.6489 13.618C21.8961 13.527 22.1543 13.4588 22.396 13.419C22.4674 13.4133 22.5443 13.4133 22.6157 13.419C22.6761 13.4303 22.7311 13.4474 22.786 13.4701C22.8464 13.5043 22.9069 13.5384 22.9618 13.5839C23.0057 13.6237 23.0442 13.6692 23.0826 13.7147C23.1211 13.7829 23.1595 13.8512 23.1925 13.9308C23.22 14.0161 23.2419 14.0957 23.2639 14.1697L25.3953 22.3024C25.4117 22.3763 25.4337 22.4445 25.4502 22.5185L25.4557 22.5299C25.4777 22.6322 25.5216 22.7232 25.5875 22.8028C25.6425 22.8882 25.7139 22.9621 25.8018 23.0133C25.8896 23.0758 25.9885 23.11 26.0929 23.1156C26.1918 23.1384 26.2961 23.1384 26.395 23.1043C26.6038 23.036 26.7685 22.9109 26.8564 22.746L26.9333 22.564L26.9388 22.5526C26.9773 22.4161 26.9773 22.2739 26.9443 22.1374L24.8734 14.2664C24.9064 14.2493 24.9393 14.2322 24.9723 14.2152C25.203 14.1299 25.4282 14.0673 25.637 14.0275C25.7139 14.0218 25.7853 14.0218 25.8622 14.0275C25.9336 14.0445 25.9995 14.0616 26.0709 14.09C26.1313 14.1242 26.1863 14.1583 26.2412 14.1981C26.2906 14.2436 26.3346 14.2948 26.373 14.3403C26.406 14.3915 26.4335 14.4483 26.4609 14.5052C26.5104 14.6588 26.5488 14.818 26.5928 14.9716C26.6038 15.0227 26.6202 15.0796 26.6312 15.1308L26.7136 15.4436C26.7576 15.6028 26.796 15.7621 26.84 15.927L27.8287 19.6749C27.8452 19.7318 27.8617 19.7943 27.8727 19.8512C27.9001 19.9649 27.9331 20.0787 27.9661 20.1924V20.1981C27.988 20.3005 28.032 20.3915 28.0979 20.4711C28.1528 20.5564 28.2242 20.6303 28.3121 20.6815C28.4 20.7441 28.4989 20.7782 28.6033 20.7839C28.7021 20.8066 28.8065 20.8009 28.9054 20.7725C29.1141 20.7043 29.2789 20.5791 29.3668 20.4142L29.4437 20.2322L29.4492 20.2209C29.4877 20.0844 29.4877 19.9422 29.4547 19.8057L28.4549 16.0237C28.4714 16.018 28.4879 16.0066 28.5099 16.0009C28.7131 15.927 28.9274 15.8645 29.1196 15.8303C29.1416 15.8303 29.1636 15.8303 29.1855 15.8303C29.1965 15.836 29.213 15.836 29.224 15.8417C29.246 15.8531 29.2679 15.8701 29.2899 15.8872C29.3338 15.927 29.3723 15.9725 29.4162 16.0237C29.4877 16.1318 29.5481 16.2512 29.603 16.382C29.6799 16.5924 29.7403 16.8199 29.7953 17.036C29.8227 17.127 29.8447 17.2237 29.8722 17.3147L30.3446 18.9754C30.5149 19.5668 30.6852 20.181 30.8609 20.7839C31.251 22.1147 31.597 23.4853 31.9376 24.8047C31.987 25.0095 32.042 25.2142 32.0914 25.4133C32.2892 26.1867 32.5199 27.1081 32.7286 28.0237L32.7561 28.1374C32.8385 28.4957 32.9209 28.8654 32.9703 29.2351C33.0088 29.5934 33.0362 29.9801 33.0582 30.4123C33.0802 30.8559 33.0692 31.254 33.0198 31.6351C32.9428 32.1014 32.811 32.5678 32.6297 33.0227C32.421 33.4948 32.1628 33.9384 31.8662 34.3365C31.5311 34.7573 31.1411 35.1384 30.7181 35.4739C30.2732 35.8038 29.7843 36.0825 29.2679 36.3043C28.79 36.4976 28.2901 36.6284 27.7848 36.6967Z" fill="#DC3CF7"/>
<path d="M43.7644 16.2569C43.259 14.9545 42.6218 13.709 41.8363 12.5659C41.0782 11.4626 40.1993 10.4389 39.2105 9.54597C39.0952 9.4436 38.9743 9.33555 38.859 9.23886C38.6887 9.09668 38.5019 9 38.2767 9C38.0734 9 37.8263 9.10237 37.6889 9.26161C37.5516 9.42654 37.4472 9.63697 37.4582 9.86445C37.4692 10.0863 37.5406 10.3308 37.7109 10.473C38.5184 11.1611 39.2545 11.9346 39.9191 12.7706C40.5893 13.6464 41.1716 14.5905 41.666 15.5801C41.7978 15.8474 41.9187 16.1147 42.0395 16.3877C42.479 17.4512 42.8195 18.5659 43.0447 19.7033C43.1052 19.9991 43.1546 20.2948 43.1986 20.5962C43.3469 21.7052 43.3908 22.8313 43.3249 23.946C43.3084 24.236 43.281 24.5318 43.248 24.8218C43.1162 25.8967 42.88 26.9545 42.5449 27.9782C42.479 28.1773 42.5339 28.4616 42.6383 28.6379C42.7426 28.8142 42.9404 28.9791 43.1381 29.019C43.3524 29.0645 43.5886 29.0474 43.7753 28.9223C43.9621 28.7915 44.072 28.6265 44.1434 28.4047C44.5609 27.1194 44.8135 25.7886 44.9344 24.4351C45.0552 23.0701 45.0058 21.6995 44.8135 20.3403C44.6213 18.9412 44.2752 17.5706 43.7644 16.2569Z" fill="#DC3CF7"/>
<path d="M37.8757 15.7109C37.3538 14.9545 36.7551 14.2493 36.0794 13.6408C36.0025 13.5725 35.9256 13.5043 35.8432 13.436C35.7663 13.3564 35.6784 13.2995 35.5741 13.2654C35.4752 13.2142 35.3708 13.1915 35.261 13.1972C35.1456 13.1915 35.0412 13.2199 34.9424 13.2768C34.838 13.3109 34.7501 13.3735 34.6732 13.4645C34.5359 13.6294 34.4315 13.8398 34.4425 14.0673C34.4535 14.2891 34.5249 14.5336 34.6952 14.6758C35.2225 15.1251 35.7114 15.6313 36.1454 16.1829C36.5848 16.7573 36.9638 17.3773 37.2879 18.0256C37.3703 18.1905 37.4472 18.3611 37.5186 18.5318C37.8043 19.2313 38.024 19.9592 38.1723 20.7043C38.2053 20.8806 38.2382 21.0512 38.2657 21.2275C38.3646 21.9668 38.3921 22.7118 38.3481 23.4569C38.3371 23.6275 38.3261 23.7981 38.3042 23.9687C38.2163 24.6853 38.057 25.3848 37.8372 26.0673C37.8043 26.181 37.8043 26.2891 37.8263 26.4028C37.8317 26.5166 37.8702 26.6246 37.9306 26.727C38.035 26.9033 38.2327 27.0682 38.4305 27.1081C38.6447 27.1536 38.8809 27.1365 39.0677 27.0114C39.1226 26.9659 39.1776 26.9204 39.2325 26.8749C39.3314 26.7668 39.3973 26.6417 39.4358 26.4938C39.7214 25.6123 39.8917 24.7024 39.9741 23.7754C40.0565 22.8483 40.018 21.927 39.8862 21.0057C39.7544 20.0616 39.5236 19.1346 39.1776 18.2474C38.848 17.3488 38.4195 16.4957 37.8757 15.7109Z" fill="#DC3CF7"/>
<path d="M8.08085 35.2294C7.41069 34.3536 6.82841 33.4152 6.33403 32.4199C6.20219 32.1526 6.08135 31.8853 5.9605 31.6123C5.52104 30.5488 5.18047 29.4341 4.95525 28.3024C4.89482 28.0066 4.84539 27.7109 4.80144 27.4095C4.65313 26.3005 4.60918 25.1801 4.6751 24.0597C4.69158 23.7697 4.71904 23.4739 4.752 23.1839C4.88384 22.109 5.12004 21.0569 5.45513 20.0275C5.52104 19.8284 5.46611 19.5441 5.36174 19.3678C5.25737 19.1915 5.05962 19.0265 4.86187 18.9867C4.64763 18.9412 4.41143 18.9583 4.22466 19.0834C4.03789 19.2142 3.92803 19.3791 3.85662 19.6009C3.43914 20.8863 3.18646 22.2171 3.06561 23.5649C2.94476 24.9299 2.9942 26.3005 3.18646 27.6597C3.38421 29.0588 3.73028 30.4294 4.24114 31.7431C4.74651 33.0455 5.38372 34.291 6.16924 35.4341C6.93278 36.5374 7.80619 37.5611 8.79496 38.454C8.91032 38.5564 9.03117 38.6645 9.14652 38.7611C9.31681 38.9033 9.50358 39 9.7288 39C9.93204 39 10.1792 38.8976 10.3166 38.7384C10.4539 38.5735 10.5583 38.363 10.5473 38.1355C10.5363 37.9137 10.4649 37.6692 10.2946 37.527C9.4816 36.8389 8.74003 36.0711 8.08085 35.2294Z" fill="#DC3CF7"/>
<path d="M9.7233 26.7839C9.62443 26.0445 9.59696 25.2995 9.64091 24.5545C9.65189 24.3839 9.66288 24.2133 9.68485 24.0427C9.77274 23.3261 9.93204 22.6265 10.1518 21.9441C10.1847 21.8303 10.1847 21.7223 10.1628 21.6085C10.1573 21.4948 10.1188 21.3867 10.0584 21.2844C9.95402 21.1081 9.75626 20.9431 9.55851 20.9033C9.34428 20.8578 9.10807 20.8749 8.9213 21C8.86637 21.0455 8.81144 21.091 8.75651 21.1365C8.65763 21.2445 8.59171 21.3697 8.55326 21.5175C8.26762 22.3991 8.09733 23.309 8.01493 24.236C7.93254 25.163 7.97099 26.0844 8.10282 27.0057C8.23466 27.9498 8.46537 28.8768 8.81144 29.764C9.15751 30.6569 9.58597 31.51 10.1298 32.2948C10.6516 33.0512 11.2504 33.7564 11.9261 34.3649C12.003 34.4332 12.0799 34.5014 12.1623 34.5697C12.2392 34.6493 12.3271 34.7062 12.4314 34.7403C12.5303 34.7915 12.6347 34.8142 12.7445 34.8085C12.8599 34.8142 12.9643 34.7858 13.0631 34.7289C13.1675 34.6948 13.2554 34.6322 13.3323 34.5412C13.4696 34.3763 13.574 34.1659 13.563 33.9384C13.552 33.7166 13.4806 33.472 13.3103 33.3299C12.783 32.8806 12.2941 32.3744 11.8601 31.8227C11.4207 31.2483 11.0417 30.6284 10.7176 29.9801C10.6352 29.8152 10.5583 29.6445 10.4869 29.4739C10.2012 28.7744 9.98148 28.0464 9.83317 27.3014C9.78373 27.1308 9.75077 26.9602 9.7233 26.7839Z" fill="#DC3CF7"/>
</svg>
